<svg data-name="Layer 1" xmlns="http://www.w3.org/2000/svg" width="1048" height="702.91"><defs><linearGradient id="a" x1="243.12" y1="779.72" x2="243.12" y2="272.62" gradientUnits="userSpaceOnUse"><stop offset="0" stop-color="gray" stop-opacity=".25"/><stop offset=".54" stop-color="gray" stop-opacity=".12"/><stop offset="1" stop-color="gray" stop-opacity=".1"/></linearGradient></defs><path d="M1048 680.96c0 5.48-47.94 10.49-127.21 14.34-14.41.69-29.86 1.35-46.24 2q-21.24.81-44.51 1.51-22.56.67-46.83 1.25c-51.12 1.22-107.62 2.1-167.65 2.54q-21.85.17-44.29.25-23.37.09-47.27.08c-289.4 0-524-9.82-524-21.94s234.6-22 524-22c124.59 0 239 1.82 328.94 4.86l9.83.33h.06c113.28 4.06 185.17 10.06 185.17 16.78Z" fill="#3f3d56"/><path d="M1048 680.96c0 5.48-47.94 10.49-127.21 14.34-14.41.69-29.86 1.35-46.24 2q-21.24.81-44.51 1.51-22.56.67-46.83 1.25c-51.12 1.22-107.62 2.1-167.65 2.54q-21.85.17-44.29.25-23.37.09-47.27.08c-289.4 0-524-9.82-524-21.94s234.6-22 524-22c124.59 0 239 1.82 328.94 4.86l9.83.33h.06c113.28 4.06 185.17 10.06 185.17 16.78Z" opacity=".1"/><path d="M1048 672.73c0 5.48-47.94 10.49-127.21 14.33-14.41.7-29.86 1.36-46.24 2q-21.24.81-44.51 1.51-22.56.67-46.83 1.25c-51.12 1.22-107.62 2.1-167.65 2.54q-21.85.15-44.29.25-23.37.08-47.27.08c-289.4 0-524-9.82-524-21.94s234.6-21.95 524-21.95c124.59 0 239 1.82 328.94 4.86l9.83.33h.06c113.28 4.02 185.17 10.02 185.17 16.74Z" fill="#3f3d56"/><path d="M1048 672.72c0 5.48-47.94 10.49-127.21 14.35-14.41.69-29.86 1.35-46.24 2q-21.24.79-44.51 1.51-22.56.67-46.82 1.25c-51.13 1.22-107.63 2.1-167.66 2.54q-21.84.15-44.29.24-23.37.09-47.27.1c-289.4 0-524-9.83-524-22 0-10.45 174.59-19.2 408.37-21.4q20-.2 40.45-.32 36.82-.21 75.18-.22t75.18.22q20.49.13 40.44.32c79.45.74 152.08 2.25 213.31 4.32l9.83.33h.07c113.28 4.05 185.17 10.05 185.17 16.76Z" fill="#3f3d56"/><path d="m778 263.22-81.08 3.74 79.67-16.27a101.12 101.12 0 0 0-6-20.94 101.34 101.34 0 1 0-129.87-155l56.54 73-66.19-62.3a101.55 101.55 0 0 0-20.15 77.75l57.94 16-56-6.46a102.68 102.68 0 0 0 4.4 13.31A101.35 101.35 0 0 0 583 306.59a101.34 101.34 0 0 0 13.31 172.36 34.94 34.94 0 0 0-5.26 10.92 33.3 33.3 0 0 0-.39 17.48 34.63 34.63 0 0 0-9.28 32.55 34.63 34.63 0 0 0-9.28 32.55 34.61 34.61 0 0 0-9.28 32.55 33.39 33.39 0 0 0-8.89 15.07c-4.19 14.7 1.52 29.23 12.76 32.43s23.74-6.13 27.93-20.84a33.41 33.41 0 0 0 .4-17.48 34.69 34.69 0 0 0 9.28-32.55 34.7 34.7 0 0 0 9.28-32.56 34.67 34.67 0 0 0 9.28-32.55 33.28 33.28 0 0 0 8.88-15.07 34.65 34.65 0 0 0 1.3-11.88 101.34 101.34 0 0 0 103.1-139.32 101.39 101.39 0 0 0 41.81-87Z" fill="#f2f2f2"/><ellipse cx="524" cy="672.26" rx="122.29" ry="12.93" opacity=".1"/><circle cx="524" cy="431.21" r="243.4" fill="#3f3d56"/><path d="M726.25 431.2c0 111.7-90.56 202.25-202.25 202.25-6.41 0-12.76-.29-19-.88-100.56-9.39-179.75-92.38-183.12-194.55q-.12-3.41-.12-6.82 0-7.66.57-15.2c7.77-104.59 95.1-187 201.68-187 92 0 169.64 61.42 194.17 145.48.43 1.51.86 3 1.27 4.55q2.25 8.5 3.8 17.29a204 204 0 0 1 3 34.88Z" opacity=".1"/><path d="M726.25 431.2c0 111.7-90.56 202.25-202.25 202.25-109.41 0-198.54-86.9-202.13-195.43 23.06.66 46.55-.1 68.34-7.61 23.62-8.13 43.84-23.69 65.59-36 58.43-32.95 128.16-41.82 194.91-35.3 22.67 2.21 46.18 6.81 67.46 15.27a202.39 202.39 0 0 1 8.08 56.77Z" fill="#585ec7" opacity=".4"/><path d="M726.25 431.2c0 111.7-90.56 202.25-202.25 202.25-6.41 0-12.76-.29-19-.88a202.26 202.26 0 0 1-112.58-174.56c23.06.66 46.55-.1 68.34-7.61 23.63-8.13 43.84-23.69 65.59-36 57.9-32.66 126.89-41.65 193.09-35.47q2.25 8.5 3.8 17.29a204 204 0 0 1 3.01 34.98Z" fill="#585ec7" opacity=".4"/><path d="M726.25 431.2c0 111.7-90.56 202.25-202.25 202.25S321.75 542.9 321.75 431.2q0-7.66.57-15.2a160.57 160.57 0 0 1 46.18 12.85c23.72 10.65 44.82 27 69.49 35.21 18 6 37.14 7.43 56.08 8 23.65.75 47.8.15 70.17-7.56 23.62-8.13 43.83-23.69 65.59-35.95 28.93-16.32 60.66-26.73 93.41-32.29a204 204 0 0 1 3.01 34.94Z" fill="#585ec7"/><path d="M988 40.13 969.75 51.7l11.08-20.15a18 18 0 0 0-11-3.94h-.3a21.58 21.58 0 0 1-3.78-.28l-6.19 3.92 2.65-4.82a22.06 22.06 0 0 1-10.82-8.21l-11.07 7 7-12.72c-6.48-7.77-15.2-12.53-24.81-12.53-11.51 0-21.76 6.84-28.38 17.51a21.22 21.22 0 0 1-18.76 10.12h-.62c-12.71 0-23 14.41-23 32.19s10.3 32.18 23 32.18a17.31 17.31 0 0 0 8-2c8.29-4.31 19.17-4.4 27.85-.55a29.08 29.08 0 0 0 23.68.06c8.62-3.78 19.37-3.7 27.61.53a17.23 17.23 0 0 0 7.93 2c12.71 0 23-14.41 23-32.18a40.86 40.86 0 0 0-4.82-19.7Z" fill="#f2f2f2"/><path d="M953.59 87.22a34 34 0 0 0-19.72 2.14 29 29 0 0 1-23.67 0c-8.69-3.85-19.57-3.77-27.86.54a17.2 17.2 0 0 1-8 2c-11.34-.04-20.69-11.45-22.65-26.45a21.58 21.58 0 0 0 5.64-6.08c6.62-10.67 16.88-17.51 28.39-17.51s21.64 6.76 28.26 17.31a21.79 21.79 0 0 0 18.76 10.31h.29c8.97.02 16.77 7.23 20.56 17.74Z" opacity=".03"/><path d="m193.07 27.07-9.1 5.77 5.53-10a9 9 0 0 0-5.51-2h-.14a10.79 10.79 0 0 1-1.89-.14l-3.09 2 1.33-2.41a11 11 0 0 1-5.4-4.09l-5.52 3.5 3.49-6.35A16.19 16.19 0 0 0 160.4 7.1c-5.75 0-10.86 3.42-14.16 8.74a10.59 10.59 0 0 1-9.36 5h-.31c-6.34 0-11.48 7.18-11.48 16.05s5.14 16 11.48 16a8.62 8.62 0 0 0 4-1 16.56 16.56 0 0 1 13.89-.27 14.52 14.52 0 0 0 11.81 0 16.62 16.62 0 0 1 13.77.26 8.49 8.49 0 0 0 3.95 1c6.34 0 11.48-7.18 11.48-16a20.26 20.26 0 0 0-2.4-9.81Z" fill="#f2f2f2"/><path d="M175.92 50.56a16.87 16.87 0 0 0-9.83 1.07 14.52 14.52 0 0 1-11.81 0 16.58 16.58 0 0 0-13.9.27 8.55 8.55 0 0 1-4 1c-5.64 0-10.32-5.67-11.3-13.15a10.93 10.93 0 0 0 2.82-3c3.3-5.32 8.42-8.73 14.16-8.73s10.79 3.37 14.09 8.63a10.85 10.85 0 0 0 9.36 5.14h.15c4.49-.07 8.34 3.53 10.26 8.77Z" opacity=".03"/><path d="m287.34 137.51 14.66 9.27-8.88-16.14a14.48 14.48 0 0 1 8.85-3.15h.23a16.2 16.2 0 0 0 3-.23l4.95 3.15-2.15-3.87a17.66 17.66 0 0 0 8.67-6.58l8.87 5.63-5.54-10.14c5.19-6.22 12.18-10 19.87-10 9.23 0 17.44 5.48 22.75 14a17 17 0 0 0 15 8.11h.5c10.18 0 18.43 11.54 18.43 25.78s-8.25 25.79-18.43 25.79a13.86 13.86 0 0 1-6.43-1.61 26.62 26.62 0 0 0-22.31-.44 23.23 23.23 0 0 1-19 .05 26.6 26.6 0 0 0-22.12.43 13.9 13.9 0 0 1-6.35 1.57c-10.19 0-18.44-11.55-18.44-25.79a32.75 32.75 0 0 1 3.87-15.83Z" fill="#f2f2f2"/><path d="M314.89 175.24a27.28 27.28 0 0 1 15.8 1.72 23.28 23.28 0 0 0 19 0 26.61 26.61 0 0 1 22.32.43 13.82 13.82 0 0 0 6.42 1.61c9.05 0 16.57-9.11 18.14-21.13a17.44 17.44 0 0 1-4.57-4.92c-5.31-8.54-13.52-14-22.75-14s-17.33 5.42-22.64 13.88a17.44 17.44 0 0 1-15 8.25h-.23c-7.21-.03-13.45 5.74-16.49 14.16Z" opacity=".03"/><path d="M949.86 659.52c4.86-9-.65-20-7-28s-14-16.35-13.88-26.56c.24-14.67 15.81-23.34 28.26-31.12a137.54 137.54 0 0 0 25.38-20.39c3.06-3.12 6-6.46 7.8-10.44 2.57-5.73 2.5-12.26 2.34-18.55q-.81-31.39-3.11-62.74" fill="none" stroke="#3f3d56" stroke-miterlimit="10" stroke-width="4"/><path d="M1013.31 460.57a22.84 22.84 0 0 0-11.43-18.74l-5.12 10.13.15-12.27a22.88 22.88 0 1 0 16.4 20.88ZM972.5 615.45a22.87 22.87 0 1 1 1.11-18.43l-14.3 11.63 15.73-3.64a22.74 22.74 0 0 1-2.54 10.44ZM961.2 571.02a22.88 22.88 0 0 1-7.26-44.89l-.12 9.43L959 525.3h.06a22.89 22.89 0 1 1 2.14 45.72ZM1016.75 534.06a22.89 22.89 0 1 1 10.11-42.83l-4 11.08 8.32-8a22.75 22.75 0 0 1 7.39 15.79 22.34 22.34 0 0 1-.57 6.35 22.89 22.89 0 0 1-21.25 17.61Z" fill="#00008b"/><path d="M1010.23 466.67c-5.28.58-10.42 2.22-15.72 2.55s-11.12-.94-14.47-5.06c-1.81-2.22-2.71-5-4.24-7.45a16.27 16.27 0 0 0-5.76-5.42 22.89 22.89 0 1 0 42.78 15.16c-.82.07-1.73.13-2.59.22ZM1016.75 534.06A22.91 22.91 0 0 1 995 501.45a16.68 16.68 0 0 1 4.6 4.61c1.63 2.46 2.62 5.3 4.54 7.56 3.56 4.19 9.65 5.56 15.17 5.31s10.85-1.82 16.36-2.32c.76-.07 1.53-.12 2.3-.14a22.89 22.89 0 0 1-21.22 17.59ZM961.2 571.02a22.88 22.88 0 0 1-22-32.22 18.64 18.64 0 0 1 4.84 4.65c1.77 2.51 2.88 5.4 5 7.72 3.86 4.3 10.35 5.81 16.2 5.67 5.67-.12 11.12-1.51 16.76-1.94a22.9 22.9 0 0 1-20.8 16.12ZM972.5 615.45a22.89 22.89 0 0 1-41.72-18.67 23 23 0 0 1 5 4.47c2.18 2.66 3.61 5.66 6.13 8.13 4.68 4.6 12.23 6.49 19 6.67a99.3 99.3 0 0 0 11.59-.6Z" opacity=".1"/><path d="M915.36 649.18s18.06-.56 23.5-4.43 27.78-8.51 29.13-2.29 27.14 30.91 6.75 31.08-47.38-3.18-52.81-6.49-6.57-17.87-6.57-17.87Z" fill="#656380"/><path d="M975.11 671.38c-20.39.16-47.38-3.18-52.81-6.49-4.14-2.52-5.79-11.56-6.34-15.73h-.6s1.14 14.56 6.57 17.87 32.42 6.65 52.81 6.49c5.89-.05 7.92-2.14 7.81-5.24-.82 1.89-3.06 3.06-7.44 3.1Z" opacity=".2"/><path d="M846 655.45c-3.17-5.87.43-13.06 4.56-18.29s9.17-10.68 9.06-17.35c-.15-9.58-10.32-15.24-18.45-20.32a89.64 89.64 0 0 1-16.57-13.32 24.33 24.33 0 0 1-5.09-6.81c-1.68-3.75-1.63-8-1.52-12.11q.53-20.52 2-41" fill="none" stroke="#3f3d56" stroke-miterlimit="10" stroke-width="4"/><path d="M804.56 525.45a14.92 14.92 0 0 1 7.44-12.22l3.34 6.62-.1-8a14.95 14.95 0 1 1-10.68 13.6ZM831.21 626.62a14.94 14.94 0 0 0 28.21-6.17 14.72 14.72 0 0 0-1-6.06 14.95 14.95 0 0 0-28 .16l9.34 7.6-10.27-2.38a14.65 14.65 0 0 0 1.72 6.85ZM838.58 597.61a15 15 0 0 0 15.63-14.23 14.65 14.65 0 0 0-1.29-6.81 15 15 0 0 0-9.59-8.28l.07 6.16-3.4-6.7a15 15 0 0 0-15.62 14.23 14.63 14.63 0 0 0 .64 5.1 15 15 0 0 0 13.56 10.53ZM802.31 573.45a15 15 0 0 0 15.63-14.23 15 15 0 0 0-22.24-13.74l2.64 7.24-5.43-5.22a14.95 14.95 0 0 0 9.4 25.95Z" fill="#00008b"/><path d="M806.57 529.45c3.44.38 6.8 1.45 10.26 1.67s7.26-.62 9.45-3.31c1.18-1.45 1.77-3.28 2.77-4.86a10.75 10.75 0 0 1 3.76-3.55 15 15 0 0 1-14 21.7 15 15 0 0 1-13.92-11.78c.55.04 1.11.13 1.68.13ZM802.31 573.45a15 15 0 0 0 15.63-14.23 14.79 14.79 0 0 0-1.42-7.09 11 11 0 0 0-3 3c-1.07 1.6-1.71 3.46-3 4.94-2.33 2.73-6.31 3.63-9.91 3.46s-7.09-1.18-10.69-1.51c-.49-.05-1-.08-1.5-.09a14.94 14.94 0 0 0 13.89 11.52ZM838.58 597.61a15 15 0 0 0 15.63-14.23 14.65 14.65 0 0 0-1.29-6.81 12 12 0 0 0-3.16 3c-1.16 1.64-1.88 3.52-3.24 5-2.52 2.81-6.76 3.8-10.58 3.71s-7.26-1-10.94-1.27a15 15 0 0 0 13.58 10.6ZM831.21 626.62a14.94 14.94 0 0 0 28.21-6.17 14.72 14.72 0 0 0-1-6.06 14.92 14.92 0 0 0-3.28 2.93c-1.42 1.73-2.36 3.69-4 5.31-3.06 3-8 4.23-12.38 4.35a63.38 63.38 0 0 1-7.55-.36Z" opacity=".1"/><path d="M868.53 648.66s-11.8-.37-15.35-2.9-18.15-5.55-19-1.49-17.72 20.19-4.41 20.29 30.94-2.07 34.49-4.23 4.27-11.67 4.27-11.67Z" fill="#656380"/><path d="M829.5 663.15c13.32.11 31-2.07 34.49-4.23 2.71-1.65 3.78-7.56 4.14-10.28h.4s-.75 9.51-4.3 11.67-21.17 4.34-34.49 4.23c-3.84 0-5.17-1.39-5.1-3.42.54 1.24 2 2.01 4.86 2.03Z" opacity=".2"/><path d="M493 536.15c22.75-4.2 22.85-37.36 22.85-37.36-1 4.74-3.33 5.2-15.18 9s-19 16.05-19 16.05c-35.41-40.37-65.85 3.59-65.85 3.59a42 42 0 0 0 21.19 16.41c-1.4 3.42-2.88 8.19-1.14 9.94 2 2 7.47-4.15 10.41-7.84.88.1 1.76.19 2.64.25 1.69 3.39 5.88 12.3 5.87 17.59 0 0 9.66-.74 8.44-18.35a72.86 72.86 0 0 0 17.77-5.29s-1 27.47 7 28.91 15.84 11.18 15.84 11.18c11.88-23.17-10.84-44.08-10.84-44.08ZM634.58 484.16c22.68 4.54 35.07-26.22 35.07-26.22-2.65 4-5 3.59-17.43 2.69s-23.59 7.82-23.59 7.82c-17.91-50.58-62.49-21-62.49-21a42 42 0 0 0 13.6 23.1c-2.57 2.66-5.71 6.54-4.74 8.8 1.12 2.65 8.47-1.08 12.57-3.42.78.43 1.57.83 2.36 1.21.31 3.78.9 13.61-1.07 18.52 0 0 9.25 2.89 14.64-13.92a72.53 72.53 0 0 0 18.37 1.68s-11.14 25.13-4.2 29.46 10.56 16.25 10.56 16.25c19.65-17.15 6.35-44.97 6.35-44.97Z" fill="#fe7d1e" opacity=".6"/><path d="m359.09 373 .06-.09-.23-.15-.47-.33.09.08a1.94 1.94 0 0 0-2.54.49l-.28.41-13.6 19.59-2.38 3.42c-7.16-2.15-18.78 6.93-24.67 12.13l-1 .92a54.9 54.9 0 0 1-.74-1.72c-.29 3.2-11.57 8-14.21 9.73a9.57 9.57 0 0 1-3.93 1.33c.38-12.16-9-24.95-9-24.95l-22.99-29.28a25.79 25.79 0 0 1 2.35-15.5c.18-.38.38-.76.59-1.13h1.13a32.1 32.1 0 0 0 5.59-.5A30.6 30.6 0 0 0 298 319.24c2.31-.6 4.28-2.74 3.95-5.21a4 4 0 0 0 0-1.42 5.16 5.16 0 0 0-.27-.87c-.66-1.66-2.05-3-3.07-4.52a14 14 0 0 1-2.18-7.44 29.65 29.65 0 0 1 1.07-6.82 11.47 11.47 0 0 0 .65-4.12v-.28a6.81 6.81 0 0 0-.05-1.1 5.06 5.06 0 0 0-.18-.77 7.37 7.37 0 0 0-3.08-3.75c-3.63-2.37-8.29-2.4-12.37-3.89-5.92-2.17-11.28-7.53-17.46-6.23-3.38.7-6 3.29-8.9 5.12a21.48 21.48 0 0 1-10.74 3.26c-3.2.1-6.43-.51-9.58 0a10.72 10.72 0 0 0-1.66.45 24.77 24.77 0 0 0-8.32-1.31 14 14 0 0 0-7.85 2.16c-4.25 3-5.39 8.74-5.32 13.9v1.12c0 2.47.24 5 .28 7.45a22.3 22.3 0 0 1-.93 6.8c-2 6.11-7.57 10.78-8.7 17.1a15.25 15.25 0 0 0-.19 3.3c-.08 3.58 1.07 7.17 2.13 10.64 2.19 7.17 3.93 14.79 3.94 22.23a36.54 36.54 0 0 1-2.71 13.47 20.38 20.38 0 0 1-1.92 3.56c-.25.36-.52.7-.79 1l-.12.13c-.24.28-.5.54-.76.8l-.22.2a8 8 0 0 1-.79.62l-.26.2a7.94 7.94 0 0 1-1.14.64l1.95-.11a8.6 8.6 0 0 1-1.95 1.24l10.32-.6c0 .11 0 .22.05.34a4.87 4.87 0 0 1-.15.76 6 6 0 0 1-.25.71.3.3 0 0 0 0 .1 6.16 6.16 0 0 1-.8 1.29l-.08.1a6.76 6.76 0 0 1-.52.55 4.94 4.94 0 0 1-.56.44l-.13.09a5.89 5.89 0 0 1-.64.37 6.42 6.42 0 0 1-.66.24l-.17.05a4.61 4.61 0 0 1-.72.15l1-.12c.65-.08 1.3-.16 1.94-.27h.19a5.17 5.17 0 0 1-3.1 1.54 28.08 28.08 0 0 0 6.53-1.28c1.35 9 4.33 36.53 2.69 41.61-1.9 5.48 2.6 45.14 2.6 45.14s.61 3 1.68 7.58c-2.76 6.51-5.91 13.73-7.49 16.62-3.18 5.81-1.61 35.43 9.32 48.6 0 0 4.53 6.38 3.34 8.71s.2 6.39.2 6.39l1.73 38.33A99.93 99.93 0 0 1 226 616c-4.66 5.78-11.86 14.21-15.25 15.59-5.23 2.12-44.29 49.56-44.29 49.56s.31.57.92 1.5l-1.1 1.27-7.5 8.69-.59.69c-1.4-.27-10.77-2-18.2-2.51h-.73v-.14a28.25 28.25 0 0 0-7.84.21h-.06a2.59 2.59 0 0 0-1.29.68c-2.53 3.1-3.9 51.89-3.9 51.89s2.7 24.37 11.1 25.78a4.68 4.68 0 0 0 1.35.25h.09a2.46 2.46 0 0 0 .47 0c6-.44 8.79-3.91 10-6.27a10.41 10.41 0 0 0 .84-2.25s-1-4.36 1.66-10.36 7.52-16.46 7.52-16.46 8.92-9.39 7.33-13.95l.86-1.24c3.36-4.78 10.13-14.22 15.61-20.53l1.08-1.21a27.35 27.35 0 0 0 6.22 1.81s8.4-3.29 11.53-10.65c1.33-3.13 6.54-8.67 12.09-14-.12.92-.18 1.43-.18 1.43l-.19 46.65a33.22 33.22 0 0 0 5.74 3.17v1.15a149.35 149.35 0 0 1-1.2 19.9c-.05.35-.11.69-.17 1-.69-.49-1.29-.66-1.67-.27-1.72 1.74-2.79 12.87-2.89 18v.29c-.12 2.13-.69 4.65-.69 6.91-.05 3.28 1 6 6.27 6.26 6.58.28 34.88.71 50 .93a33.54 33.54 0 0 0 22.37-7.93c2.78-2.38 4.91-5 5-7.52.14-1.91-.9-3.75-3.79-5.34 0 .06 0 .12-.06.19-.38-.21-.79-.41-1.24-.61l-14.55-2.28-24.8-12.68s-.15-7.66-3.13-6.39a8.37 8.37 0 0 0-2.51 1c-.15-.28-.3-.58-.45-.89a28.81 28.81 0 0 1-3.06-12.92c0-.41 0-.82.06-1.24a21.7 21.7 0 0 0 2.05-2.11s-.19-17.42 1.76-20.72 8-36.59 8-36.59.2-6.19 4.1-9.87 2.54-14.33 2.54-14.33 5.47-2.9 7.23-12.39 7.42-30.2 7.42-30.2 11.72-30.59 10.94-49.95 1.17-29.43 1.17-29.43l2.44-45v-.7c1 .74 1.62 1.34 1.62 1.34v-.49l.56.49s1.24-20.41.82-28.51c6.84-2.32 17.24-6.14 17.83-8.08.88-2.9 12.59-12.05 12.59-12.05a2.33 2.33 0 0 1-.71-.27c.37-.17.75-.37 1.16-.59 7.68-4.11 21.95-16.14 19.55-23.49l15.6-22.45a3.81 3.81 0 0 0-.36-4.77ZM232 351.13a11.16 11.16 0 0 0-1.14.09 87.1 87.1 0 0 0-2.86-11.83c-1.81-6.08-3.75-12.2-4.05-18.53v-.83a23.39 23.39 0 0 1 .65-4.94c.38.69.79 1.37 1.22 2 2.49 3.77 5.41 7.35 6.95 11.6a33.08 33.08 0 0 0 2.17 5.85c1.07 1.79 3 3.28 5.12 3a4 4 0 0 0 1.93-.89 81.53 81.53 0 0 1-9.99 14.48Z" transform="translate(-76 -98.55)" fill="url(#a)"/><path d="M245.52 330.01a10 10 0 0 1-3.69 1.4c-4.81.14-8.77-12.88-8.77-12.88s1.37-1.38 3.55-3.32c6.44-5.74 20-16.32 26.3-10.4 7.09 6.64-9.12 20.72-17.39 25.2ZM172.46 640.34l-17.73 19.11s-16.41.18-13.2-8.87a33.21 33.21 0 0 0 1.36-6 146.54 146.54 0 0 0 1.16-19.38c0-4.25-.07-7.23-.07-7.23s25.84-11.32 23.2.47a22.06 22.06 0 0 0-.53 4.49 28.2 28.2 0 0 0 2.95 12.59 28.57 28.57 0 0 0 2.86 4.82Z" fill="#ecb4b6"/><path d="m172.46 640.34-17.73 19.11s-16.41.18-13.2-8.87a33.21 33.21 0 0 0 1.36-6c2.34 1.81 5.71 7.15 5.71 7.15s11.32 3.3 14.43-6.6c1.74-5.54 4.49-8.28 6.57-9.61a28.57 28.57 0 0 0 2.86 4.82Z" opacity=".1"/><path d="M213.61 669.18A32.35 32.35 0 0 1 192 676.9c-14.62-.22-42-.64-48.31-.91-8.48-.36-5.67-7.61-5.39-12.61v-.5c.09-5 1.13-15.84 2.79-17.54s7.49 7.54 7.49 7.54 11.32 3.31 14.43-6.6 9.45-10.83 9.45-10.83c2.88-1.25 3 6.22 3 6.22l24 12.35 14.06 2.22c.45.21.87.42 1.25.62 6.3 3.51 3.49 8.29-1.16 12.32Z" fill="#00008b"/><circle cx="169.35" cy="649.12" r="1.04" fill="#fff" opacity=".25"/><circle cx="179.06" cy="653.93" r="1.04" fill="#fff" opacity=".25"/><circle cx="184.06" cy="656.17" r="1.04" fill="#fff" opacity=".25"/><circle cx="194.44" cy="660.15" r="1.04" fill="#fff" opacity=".25"/><circle cx="189.16" cy="658.45" r="1.04" fill="#fff" opacity=".25"/><path d="M213.61 669.18A32.35 32.35 0 0 1 192 676.9c-14.62-.22-42-.64-48.31-.91-8.48-.36-5.67-7.61-5.39-12.61l53.31 3.29s21.83-3.31 23.13-9.82c6.33 3.52 3.52 8.3-1.13 12.33Z" fill="#00008b"/><path d="M213.61 668.96a32.25 32.25 0 0 1-21.61 7.72c-14.62-.21-42-.63-48.3-.9-8.49-.37-5.68-7.62-5.4-12.62l53.31 3.29s21.83-3.31 23.13-9.81c6.33 3.52 3.52 8.3-1.13 12.32Z" fill="#fff" opacity=".25"/><path d="M114.36 592.24a36 36 0 0 0-5.35 5.36c-5.29 6.15-11.83 15.35-15.08 20l-2 2.94-7.09-1.09s-7.64-11.69-7.54-12 6-12.83 6-12.83l2.3-2.69 7.24-8.47 3.28-3.84s24.66 8 18.24 12.62Z" fill="#ecb4b6"/><path d="m93.93 617.6-2 2.94-7.09-1.09s-7.64-11.69-7.54-12 6-12.83 6-12.83l2.3-2.69.75.13h1.8c-6.33 6.6.47 21.13.47 21.13s2.97.35 5.31 4.41Z" opacity=".1"/><path d="M86 632.45s-4.72 10.19-7.27 16-1.6 10.09-1.6 10.09a9.29 9.29 0 0 1-.81 2.19c-1.16 2.31-3.84 5.68-9.66 6.11a3.38 3.38 0 0 1-.45 0c-8.6-.23-11.33-25.19-11.33-25.19s1.31-47.54 3.76-50.56a2.45 2.45 0 0 1 1.25-.66 26.11 26.11 0 0 1 7.58-.2c7.78.56 17.77 2.47 17.77 2.47h1.8c-6.33 6.6.46 21.12.46 21.12s3 .29 5.38 4.53-6.88 14.1-6.88 14.1Z" fill="#00008b"/><circle cx="75.64" cy="618.27" r="1.04" fill="#fff" opacity=".25"/><circle cx="75.13" cy="626.51" r="1.04" fill="#fff" opacity=".25"/><path d="M75.64 660.54a11.12 11.12 0 0 1-9.66 6.12h-.45c-8.6-.21-11.34-25.21-11.34-25.21s1.32-47.53 3.77-50.55a2.37 2.37 0 0 1 1.25-.67 26.79 26.79 0 0 1 7.57-.2c-.14 8.54-.55 35.55.05 38.23s5.39 25.1 8.81 32.28Z" fill="#00008b"/><path d="M76.26 660.72a11.11 11.11 0 0 1-9.66 6.11 3.42 3.42 0 0 1-.45 0c-8.61-.23-11.34-25.19-11.34-25.19s1.32-47.54 3.77-50.56a2.37 2.37 0 0 1 1.24-.66 26.14 26.14 0 0 1 7.58-.2c-.14 8.54-.55 35.55 0 38.23s5.43 25.08 8.86 32.27Z" fill="#fff" opacity=".25"/><path d="M65.53 666.66c-8.6-.21-11.34-25.21-11.34-25.21s1.32-47.53 3.77-50.55a2.37 2.37 0 0 1 1.25-.67c1.8 2.69 3.38 8.63 2 21.7-2.69 24.76.55 26.31.55 26.31s3.97 21.03 3.77 28.42Z" fill="#00008b"/><path d="M65.46 666.66c-8.6-.21-11.34-25.21-11.34-25.21s1.32-47.53 3.77-50.55a2.37 2.37 0 0 1 1.25-.67c1.8 2.69 3.38 8.63 2 21.7-2.69 24.76.55 26.31.55 26.31s3.96 21.03 3.77 28.42ZM245.52 330.01a10 10 0 0 1-3.69 1.4c-4.81.14-8.77-12.88-8.77-12.88s1.37-1.38 3.55-3.32c1.53 3.55 5.87 13.04 8.91 14.8Z" opacity=".1"/><path d="M214.67 325.33s4 .28 6.51-1.42 13.44-6.37 13.72-9.48c0 0 6.51 15.85 10.19 16.41 0 0-11.32 8.92-12.17 11.75S210 352.35 210 352.35Z" fill="#ff748e"/><path d="M214.67 325.33s4 .28 6.51-1.42 13.44-6.37 13.72-9.48c0 0 6.51 15.85 10.19 16.41 0 0-11.32 8.92-12.17 11.75S210 352.35 210 352.35Z" fill="#00008b"/><path d="M114.36 592.24a36 36 0 0 0-5.35 5.36c-8.53-3.58-14-10.87-16.13-14.07l3.28-3.84s24.62 7.93 18.2 12.55Z" opacity=".1"/><path d="M154.73 511.98s-13.84 18.48-18.9 20.56-42.78 48.29-42.78 48.29 8.11 14.9 23 17.35c0 0 8.11-3.21 11.13-10.37S154 560.45 154 560.45Z" fill="#5e5a6b"/><path d="M154.73 511.98s-13.84 18.48-18.9 20.56-42.78 48.29-42.78 48.29 8.11 14.9 23 17.35c0 0 8.11-3.21 11.13-10.37S154 560.45 154 560.45Z" opacity=".1"/><path d="M112.81 573.89a59.76 59.76 0 0 0 12.59 0c7.5-.7 1.84 3.82-12.59 0ZM109.41 578.7s9.91 5.66 13.73 2.83-3.69 2.73-13.73-2.83ZM167.18 618.45a22.06 22.06 0 0 0-.53 4.49c-7.65 6.94-16.85 4.79-22.6 2.27 0-4.25-.07-7.23-.07-7.23s25.84-11.31 23.2.47Z" opacity=".1"/><path d="m213 372.39-.29 5.22-2.33 43.84s-1.89 9.81-1.13 28.68-10.57 48.66-10.57 48.66-5.47 20.19-7.17 29.43-7 12.07-7 12.07 1.32 10.38-2.45 14-4 9.62-4 9.62-5.85 32.44-7.73 35.65-1.7 20.19-1.7 20.19c-12.26 14.52-30.18 1.32-30.18 1.32l.19-45.46s5.09-41.88 8.86-47.73 3.77-21.88 3.77-21.88l-1.67-37.35s-1.34-4-.19-6.22-3.23-8.49-3.23-8.49c-10.56-12.83-12.07-41.69-9-47.35s12.23-28.29 12.23-28.29l12.62-7.36 22.8.68Z" fill="#5e5a6b"/><path d="M159.35 594.69s3 10.33 5.39 11.46-5.39-11.46-5.39-11.46ZM163.46 560.31s7.73 6.1 11 6.09-11-6.09-11-6.09Z" opacity=".1"/><path d="M210 304.95v12.5l-8.22-3.54-8.19-3.53-17.83-17.54s-14.1-9.17-21.65-17.52c-4.31-4.76-6.48-9.26-2.68-11.63a23.77 23.77 0 0 0 4.93-4.33 80.51 80.51 0 0 0 9.84-14.51l.35-.64c3.67-6.73 6.1-12.49 6.1-12.49s10.34 3.32 17 8c.54.37 1.05.76 1.53 1.15 3.71 3.05 5.55 6.57 2.14 10.08a24.61 24.61 0 0 0-2.44 2.91 24.25 24.25 0 0 0-1.51 2.39c-.21.36-.4.73-.58 1.1a25.31 25.31 0 0 0-2.26 15.1Z" fill="#ecb4b6"/><path d="M193.31 250.91a24.61 24.61 0 0 0-2.44 2.91 24.25 24.25 0 0 0-1.51 2.39c-.21.36-.4.73-.58 1.1a29.62 29.62 0 0 1-22.23-12c-.12-.17-.24-.33-.35-.5l.35-.64c3.67-6.73 6.1-12.49 6.1-12.49s10.34 3.32 17 8c.54.37 1.05.76 1.53 1.15 3.7 3.05 5.54 6.62 2.13 10.08Z" opacity=".1"/><path d="M220.16 226.52a29.69 29.69 0 0 1-29.71 29.71h-1.13a29.72 29.72 0 1 1 30.8-29.69Z" fill="#ecb4b6"/><path d="M194.34 299.95s15 8.45 11.13 1.32L186 272.45l22.16 28.49s14.15 19.43 6.42 32.82c0 0-1.13 11.13.19 13.77s-.38 30.75-.38 30.75-5.28-4.91-8.11-4-22.83 2.64-22.83 2.64Z" opacity=".1"/><path d="m213 372.39-.29 5.22c-1.79-1.3-4.28-2.76-5.94-2.2-2.77.94-22.77 2.64-22.77 2.64l.92-6.49Z" opacity=".1"/><path d="M194.91 299.95s15 8.45 11.13 1.32l-19.52-28.82 22.16 28.49s14.15 19.43 6.41 32.82c0 0-1.13 11.13.19 13.77s-.38 30.75-.38 30.75-5.28-4.91-8.11-4-22.79 2.64-22.79 2.64Z" fill="#464353"/><path d="M202.91 314.45c-.88 9.06-4.61 19.85-4.61 19.85s-2.63 26.79-6 34.72-1.89 18.86-3.77 39c-.68 7.27-3 12.26-6.18 15.63-5.2 5.54-12.61 6.7-18.47 6.36l-1.39-.11c-9.43-.94-18.48-46.4-18.48-46.4s-4.34-38.67-2.64-43.95-1.7-35.47-2.83-42.07c-.72-4.18 1.44-11 3.12-15.47 1-2.56 1.78-4.34 1.78-4.34s3.21-10.18 8.49-15.46a7.77 7.77 0 0 1 5.6-2.35 13.88 13.88 0 0 1 7 2.19l.24.16s34.33 35.08 37.53 43.19c.86 2.29.95 5.53.61 9.05Z" opacity=".1"/><path d="M201.78 313.86c-.88 9.07-4.61 19.86-4.61 19.86s-2.64 26.79-6 34.71-1.89 18.86-3.78 39c-.67 7.26-3 12.25-6.18 15.63-5.19 5.54-12.6 6.69-18.46 6.35-.48 0-.93-.06-1.39-.11-9.43-.94-18.48-46.4-18.48-46.4s-4.34-38.67-2.64-43.95-1.7-35.46-2.83-42.07c-.72-4.18 1.44-11 3.12-15.46 1-2.57 1.78-4.34 1.78-4.34s3.21-10.19 8.49-15.47a7.77 7.77 0 0 1 5.59-2.35 14 14 0 0 1 7 2.19l.25.16s34.33 35.09 37.53 43.2c.83 2.31.95 5.55.61 9.05Z" fill="#00008b"/><path d="M163.31 451.94s-7.78 6.94-10.47 6.65 10.47-6.65 10.47-6.65ZM165.38 458.6s-8.2 3.81-10.65 4.38 7.49-5.36 10.65-4.38ZM197.13 354.45s12.16.14 14 4-10.04-5.54-14-4ZM195.43 361.12s9.34 2 12.16 4.24-12.16-4.24-12.16-4.24ZM179.73 338.06s-1.13 38.39-5.31 43.29 5.31-43.29 5.31-43.29ZM169.26 446.45s-7.77 33.81 7.85 35.93 10.82-38.48 10.82-38.48Z" opacity=".1"/><path d="M168.69 445.86s-7.77 33.81 7.86 35.94 10.81-38.49 10.81-38.49Z" fill="#ecb4b6"/><path d="M182.06 303.92c-.8-20.32-29.24-24.52-35.87-5.3l-.14.39c-4.33 13-2.45 46-2.45 46s.57 22.13 2.64 29.48 7.92 28.49 7.92 31.88 5.42 16.41 7.71 17.36 3.44 8.3 4 9.62 2.25 18.48 2.25 18.48 21.32-1.32 21.7-4.71-4.72-20-4.72-20-3.76-6.79-4.24-12.26-3.49-7.92-2.93-11.69-1.7-5.66-1.7-8.12-1.69-9.05-1.69-9.05-3.59-2.83-3-6.22-5.09-10.19-3.58-12.64 1.88-8.49 1.88-8.49 1.87-27.2 3.16-34.55 9-19.24 9-19.24.08-.34.06-.94Z" opacity=".1"/><path d="M181.18 423.11c-5.19 5.54-12.6 6.69-18.46 6.35-.67-2.57-1.66-5.73-3.11-6.33-2.29-.94-7.71-14-7.71-17.35s-5.85-24.53-7.92-31.88-2.64-29.45-2.64-29.45-1.89-33 2.45-46c.05-.13.09-.26.13-.4 6.64-19.22 35.07-15 35.88 5.31v.93s-7.74 11.88-9 19.24-3.21 34.52-3.21 34.52-.38 6-1.89 8.49 4.15 9.25 3.59 12.64 3 6.23 3 6.23 1.7 6.59 1.7 9.05 2.26 4.34 1.7 8.11 2.45 6.22 2.93 11.7a30.68 30.68 0 0 0 2.56 8.84Z" opacity=".1"/><path d="M180.93 303.36c-.81-20.32-29.24-24.53-35.88-5.3 0 .13-.08.26-.13.39-4.34 13-2.45 46-2.45 46s.57 22.12 2.64 29.48 7.89 28.45 7.89 31.85 5.42 16.41 7.71 17.35 3.44 8.3 4 9.62 2.29 18.49 2.29 18.49 21.32-1.32 21.69-4.72-4.71-20-4.71-20-3.76-6.79-4.24-12.26-3.5-7.93-2.93-11.7-1.7-5.66-1.7-8.11-1.69-9.06-1.69-9.06-3.59-2.83-3-6.22-5.1-10.19-3.59-12.64 1.89-8.49 1.89-8.49 1.89-27.16 3.21-34.52 9-19.24 9-19.24.07-.32 0-.92Z" fill="#00008b"/><path d="M145.91 355.6c.57-.57 11.32-12.45 14.72-8.2s-14.72 8.2-14.72 8.2ZM146.9 364.8c.43-.43 10.75-.85 13.3-6.65s-13.3 6.65-13.3 6.65Z" opacity=".1"/><g opacity=".1"><path d="M135.13 260.45a2.91 2.91 0 0 1 .57 1 4.43 4.43 0 0 0-.57-3.86c-.5-.57-1.24-.92-1.69-1.53 0-.05-.06-.11-.1-.16a3 3 0 0 0 .1 3c.45.66 1.19 1 1.69 1.55ZM149.53 223.81c0-1.07.05-2.14 0-3.2-.19-3.85-.91-7.8-1.07-11.66-.23 4.73.83 9.69 1.07 14.49v.37Z"/></g><path d="m249.64 321.93.58.4a2.33 2.33 0 0 1-.6-3.24l26.22-38.06a2.34 2.34 0 0 1 3.25-.6l-.59-.4a3.75 3.75 0 0 1 1 5.21l-24.62 35.73a3.73 3.73 0 0 1-5.24.96Z" fill="#464353"/><path d="m278.626 280.095.61.42-28.863 41.9-.585-.402a1.74 1.74 0 0 1-.446-2.42l26.889-39.035a1.74 1.74 0 0 1 2.395-.463Z" fill="#9f9eff"/><rect x="350.05" y="384.08" width=".47" height="4.15" rx=".17" transform="rotate(35 468.723 211.456)" fill="#464353"/><path d="M223.88 222.88c-.42-2-2.08-3.53-3.22-5.25-2.86-4.31-2.41-10-1.07-15a10.7 10.7 0 0 0 .6-4.25 6.7 6.7 0 0 0-3.15-4.41c-3.5-2.31-8-2.34-11.94-3.79-5.72-2.12-10.9-7.34-16.87-6.07-3.26.69-5.77 3.21-8.59 5a20.65 20.65 0 0 1-10.37 3.18c-3.09.09-6.22-.51-9.26 0a8.26 8.26 0 0 0-1.6.44 23.64 23.64 0 0 0-8-1.29 13.57 13.57 0 0 0-7.58 2.11c-4.11 2.9-5.2 8.51-5.14 13.54s.91 10.2-.63 15c-1.91 6-7.31 10.5-8.39 16.66-.75 4.18.64 8.41 1.87 12.48 3.54 11.69 5.88 24.61 1.18 35.89-1.19 2.86-3 5.69-5.79 7l10-.58a5.43 5.43 0 0 1-4.55 6.17 23.15 23.15 0 0 0 7.32-1.67 7.83 7.83 0 0 0 4.61-5.59c.19-1.34-.09-2.75.28-4.06.65-2.24 3-3.48 4.81-4.91 4.87-3.79 7.17-10.18 7.36-16.35s-1.45-12.24-3.2-18.16-3.63-11.89-3.91-18a23.44 23.44 0 0 1 .62-6.72c.36.67.76 1.33 1.17 1.95 2.41 3.68 5.23 7.17 6.71 11.31a31.74 31.74 0 0 0 2.1 5.69c1 1.75 2.94 3.2 4.95 2.89s3.51-2.47 4.17-4.53.95-4.31 2.2-6.07c2.38-3.32 7.13-3.62 11.21-3.5 8.6.27 20.46 1.58 27.19-5 1.28-1.25 1.89-3.17 3.89-2.7 1.79.42 2.79 3.33 4.7 4 3.07.97 7.04-1.95 6.32-5.41Z" opacity=".1"/><path d="M223.88 221.78c-.42-2-2.08-3.53-3.22-5.25-2.86-4.31-2.41-10-1.07-15a10.7 10.7 0 0 0 .6-4.25 6.7 6.7 0 0 0-3.15-4.41c-3.5-2.31-8-2.34-11.94-3.79-5.72-2.12-10.9-7.34-16.87-6.07-3.26.69-5.77 3.21-8.59 5a20.65 20.65 0 0 1-10.37 3.18c-3.09.09-6.22-.51-9.26 0a8.26 8.26 0 0 0-1.6.44 23.64 23.64 0 0 0-8-1.29 13.57 13.57 0 0 0-7.58 2.11c-4.11 2.9-5.2 8.51-5.14 13.54s.91 10.2-.63 15c-1.91 5.95-7.31 10.5-8.39 16.66-.75 4.18.64 8.41 1.87 12.48 3.54 11.69 5.88 24.61 1.18 35.89-1.19 2.86-3 5.69-5.79 7l10-.59a5.43 5.43 0 0 1-4.55 6.17 23.15 23.15 0 0 0 7.32-1.67 7.83 7.83 0 0 0 4.61-5.59c.19-1.34-.09-2.75.28-4.06.65-2.24 3-3.48 4.81-4.91 4.87-3.79 7.17-10.18 7.36-16.35s-1.45-12.24-3.2-18.16-3.63-11.89-3.91-18.05a23.44 23.44 0 0 1 .62-6.72c.36.67.76 1.33 1.17 2 2.41 3.68 5.23 7.17 6.71 11.31a31.74 31.74 0 0 0 2.1 5.69c1 1.75 2.94 3.2 4.95 2.89s3.51-2.47 4.17-4.53.95-4.31 2.2-6.07c2.38-3.32 7.13-3.62 11.21-3.5 8.6.27 20.46 1.58 27.19-5 1.28-1.25 1.89-3.17 3.89-2.7 1.79.42 2.79 3.33 4.7 4 3.07.98 7.04-1.94 6.32-5.4Z" fill="#464353"/><g opacity=".1"><path d="M137.69 204.07c0 .65-.05 1.31 0 1.95 0 2.1.18 4.22.25 6.33.06-2.73-.16-5.52-.25-8.28ZM134.28 270.15c.26-7.77-1.51-15.79-3.78-23.31a44.54 44.54 0 0 1-2-8.3c-.42 3.9.83 7.82 2 11.6a80.29 80.29 0 0 1 3.78 20.01ZM218.61 207.01a29.68 29.68 0 0 1 1-5.48 10.7 10.7 0 0 0 .6-4.25 4.56 4.56 0 0 0-.18-.75c-.12.57-.27 1.14-.42 1.71a25.85 25.85 0 0 0-1 8.77ZM135.86 289.14l-6 .35a10 10 0 0 1-3.94 3.54l9.4-.56a5 5 0 0 0 .54-3.33ZM223.62 220.93a5.21 5.21 0 0 1-6.13 2.86c-1.91-.65-2.91-3.56-4.7-4-2-.47-2.61 1.45-3.89 2.7-6.73 6.61-18.59 5.3-27.19 5-4.08-.12-8.83.18-11.21 3.5-1.25 1.76-1.53 4-2.2 6.07s-2 4.2-4.17 4.53-3.92-1.14-4.95-2.89a31.74 31.74 0 0 1-2.1-5.69c-1.48-4.14-4.3-7.63-6.71-11.31-.41-.62-.81-1.28-1.17-1.95a23.44 23.44 0 0 0-.62 6.72v.48a21.09 21.09 0 0 1 .58-3.9c.36.67.76 1.33 1.17 2 2.41 3.68 5.23 7.17 6.71 11.31a31.74 31.74 0 0 0 2.1 5.69c1 1.75 2.94 3.2 4.95 2.89s3.51-2.47 4.17-4.53.95-4.31 2.2-6.07c2.38-3.32 7.13-3.62 11.21-3.5 8.6.27 20.46 1.58 27.19-5 1.28-1.25 1.89-3.17 3.89-2.7 1.79.42 2.79 3.33 4.7 4 3.14 1.07 7.11-1.85 6.39-5.31a4.66 4.66 0 0 0-.22-.9ZM148.33 279.08c-1.84 1.43-4.16 2.67-4.81 4.91-.37 1.31-.09 2.72-.28 4.06a7.83 7.83 0 0 1-4.61 5.59 14.48 14.48 0 0 1-2.87 1 5.44 5.44 0 0 1-4.45 4 23.15 23.15 0 0 0 7.32-1.67 7.83 7.83 0 0 0 4.61-5.59c.19-1.34-.09-2.75.28-4.06.65-2.24 3-3.48 4.81-4.91 4.87-3.79 7.17-10.18 7.36-16.35v-2.74c-.35 5.96-2.63 12.13-7.36 15.76Z"/></g></svg>
